<mxfile host="app.diagrams.net" modified="2024-06-24T19:32:08.914Z" agent="Mozilla/5.0 (Windows NT 10.0; Win64; x64) AppleWebKit/537.36 (KHTML, like Gecko) Chrome/126.0.0.0 Safari/537.36" version="24.2.1" etag="6se1FE77t-jT4cBVrO6w" type="github">
  <diagram name="Page-1" id="Rl0XUKKhFNIFg17CyXRH">
    <mxGraphModel>
      <root>
        <mxCell id="0" />
        <mxCell id="1" parent="0" />
      </root>
    </mxGraphModel>
  </diagram>
</mxfile>
